General                          : ChattChitto RG - Movies Release 
========== 
Complete name                    : The Kingdom 2007 BDRip.MP4
Format                           : MPEG-4
Format profile                   : Base Media
Codec ID                         : isom
File size                        : 1.84 GiB
Duration                         : 1h 50mn
Overall bit rate                 : 2 391 Kbps
Encoded date                     : UTC 2009-12-22 08:02:00
Encoder                          : Recalled2Life (R2L)
Ripper                           : Recalled2Life (R2L)

Video
===========
ID                               : 1
Format                           : AVC
Format/Info                      : Advanced Video Codec
Format profile                   : High@L3.1
Format settings, CABAC           : Yes
Format settings, ReFrames        : 4 frames
Codec ID                         : avc1
Codec ID/Info                    : Advanced Video Coding
Duration                         : 1h 50mn
Bit rate mode                    : Variable
Bit rate                         : 2 052 Kbps
Maximum bit rate                 : 16.6 Mbps
Width                            : 1 280 pixels
Height                           : 544 pixels
Display aspect ratio             : 2.35:1
Frame rate mode                  : Constant
Frame rate                       : 23.976 fps
Resolution                       : 24 bits
Colorimetry                      : 4:2:0
Scan type                        : Progressive
Bits/(Pixel*Frame)               : 0.123
Stream size                      : 1.58 GiB (86%)
Writing library                  : x264
Encoded date                     : UTC 2009-12-22 04:11:30


Audio
==========
ID                               : 2
Format                           : AAC
Format/Info                      : Advanced Audio Codec
Format version                   : Version 4
Format profile                   : LC
Format settings, SBR             : No
Codec ID                         : 40
Duration                         : 1h 50mn
Bit rate mode                    : Variable
Bit rate                         : 335 Kbps
Maximum bit rate                 : 432 Kbps
Channel(s)                       : 6 channels
Channel positions                : Front: L C R, Rear: L R, LFE
Sampling rate                    : 48.0 KHz
Resolution                       : 16 bits
Stream size                      : 265 MiB (14%)
Encoded date                     : UTC 2009-12-22 08:02:56

Subtitles                        : English/Spanish/French



IMDB Link: http://www.imdb.com/title/tt0431197


Plot:
======
After a terrorist attack to an American housing compound in Riyadh, Saudi Arabia, where families and the spy Francis Manner are murdered, FBI agent Ronald Fleury blackmails the South Arabian consul to get five days of investigation in the location. He travels with agent Grant Sykes, Janet Mayes and Adam Leavitt to revenge their friend and try to find the responsible for the bombing. The agents find all sorts of difficulties in their investigation, but they are supported by Colonel Faris Al Ghazi that advises the team how to act in a hostile environment. 


Source
==========
Retail BD9: 1080p VC-1/DTS-HD Master Audio 5.1, 29.5 GB total size.

Notes
==========
Subtitle files for this release are in .sub format.
ChattChitto RG Encourages Burning this Film with ConvertXtoDVD.
Enhanced for your viewing pleasure ;)